<svg
   xmlns:svg="http://www.w3.org/2000/svg"
   xmlns="http://www.w3.org/2000/svg"
   version="1.0"
   width="600"
   height="600"
   id="svg2">
  <defs
     id="defs4" />
  <path
     d="M 526.84546,6.7758789 L 539.66626,197.43359 L 526.84546,197.43359 C 509.75057,140.36079 485.34971,99.279127 453.64282,74.188477 C 421.93506,49.098839 383.88627,36.553767 339.49634,36.553223 C 302.27437,36.553767 268.63704,46.065964 238.58423,65.089844 C 208.53098,83.839038 184.81941,113.89207 167.44946,155.24902 C 150.35493,196.60683 141.80774,248.02784 141.80786,309.51221 C 141.80774,360.2442 149.94135,404.22088 166.20874,441.44238 C 182.47583,478.66416 206.87668,507.20076 239.41138,527.05225 C 272.22134,546.90384 309.58084,556.82961 351.48999,556.82959 C 387.88415,556.82961 420.00505,549.10957 447.85278,533.66943 C 475.69966,517.95368 506.30412,486.93564 539.66626,440.61523 L 552.48706,448.88672 C 524.36351,498.79142 491.55332,535.32378 454.0564,558.48389 C 416.5586,581.64404 372.03049,593.22411 320.47192,593.22412 C 227.55537,593.22411 155.59353,558.75962 104.58618,489.83057 C 66.537304,438.54751 47.512909,378.16573 47.512939,308.68506 C 47.512909,252.71501 60.057981,201.294 85.148193,154.42188 C 110.23827,107.5506 144.70275,71.293966 188.54175,45.651855 C 232.65612,19.735098 280.76853,6.7764525 332.87915,6.7758789 C 373.40907,6.7764525 413.38787,16.702224 452.81567,36.553223 C 464.3953,42.619516 472.66678,45.65239 477.63013,45.651855 C 485.07399,45.65239 491.55332,43.033089 497.06812,37.793945 C 504.23625,30.350159 509.33699,20.010814 512.37036,6.7758789 L 526.84546,6.7758789"
     style="font-size:847px;font-style:normal;font-variant:normal;font-weight:normal;font-stretch:normal;text-align:start;line-height:125%;writing-mode:lr-tb;text-anchor:start;fill:#000000;fill-opacity:1;stroke:none;stroke-width:1px;stroke-linecap:butt;stroke-linejoin:miter;stroke-opacity:1;font-family:Times New Roman"
     id="text1306" />
</svg>